<svg width="360" height="640" viewBox="0 0 360 640" fill="none" xmlns="http://www.w3.org/2000/svg">
<g clip-path="url(#clip0)">
<rect width="360" height="640" fill="#FFFFF0"/>
<g clip-path="url(#clip1)">
<circle cx="180" cy="565" r="75" fill="#DA4167"/>
<path d="M132.55 612.117L111.64 623.759L107.217 629.38L104 635H114.053H145.016H162.307L210.963 629.781L228.254 627.774L249.566 635L256 625.766L240.72 616.934L235.894 613.321L226.646 605.292L196.487 580.803H193.672L192.868 580L180.402 580.401L167.937 589.234L158.286 595.657L132.55 612.117Z" fill="#F9F4F4"/>
<path d="M85.8728 638.2L83.8638 639.456C81.3087 641.054 82.4409 645 85.4545 645H277.484C280.046 645 281.429 641.996 279.764 640.049L277.39 637.276C277.233 637.093 277.056 636.93 276.861 636.789C274.362 634.989 269.812 631.615 269.503 631C269.1 630.2 265.476 628.6 264.671 627.8C263.865 627 260.644 624.6 259.435 623.8C258.6 623.247 257.102 622.454 256.191 621.991C255.939 621.863 255.67 621.774 255.392 621.724L251.966 621.106C251.58 621.036 251.211 620.891 250.881 620.679L238.898 613L237.572 612.177C236.542 611.537 235.5 612.975 236.428 613.755C236.464 613.785 236.501 613.812 236.54 613.837C237.637 614.52 239.876 615.971 240.509 616.6C241.314 617.4 244.938 619 245.744 619.4C246.549 619.8 247.355 621 248.965 621.8C249.195 621.914 249.403 622.038 249.589 622.168C250.655 622.907 250.311 624.607 249.016 624.678C248.848 624.687 248.693 624.665 248.563 624.6C247.976 624.308 245.784 623.331 244.485 622.756C244.251 622.652 244.031 622.519 243.831 622.36L242.119 621C241.583 620.6 240.428 619.72 240.106 619.4C239.914 619.21 239.618 618.821 239.353 618.453C239.048 618.03 238.652 617.678 238.185 617.446L236.482 616.6L234.362 615.547C234.165 615.449 233.979 615.33 233.809 615.192L223.193 606.6L234.709 618.828C234.817 618.942 234.934 619.048 235.058 619.145L241.863 624.402C242.034 624.534 242.189 624.683 242.327 624.848L243.693 626.475C243.982 626.821 244.19 627.227 244.3 627.664L244.574 628.754C244.783 629.582 244.346 630.435 243.553 630.75C243.15 630.911 242.701 630.909 242.294 630.757C241.599 630.496 240.749 630.2 240.509 630.2H240.405C239.692 630.2 239.003 629.946 238.46 629.484L236.482 627.8L233.086 624.802C232.935 624.668 232.761 624.563 232.573 624.491L229.659 623.378C229.028 623.137 228.428 623.925 228.428 624.6C228.428 625.228 227.864 625.707 227.244 625.604L226.358 625.457C226.133 625.42 225.924 625.313 225.762 625.152L224.086 623.487C223.818 623.221 223.367 623.464 223.441 623.834C223.504 624.146 223.182 624.391 222.903 624.24C222.379 623.955 221.796 623.613 221.582 623.4C221.26 623.08 220.374 621.667 219.971 621L218.636 619.011C218.454 618.739 218.227 618.498 217.967 618.299L213.184 614.645C213.145 614.615 213.103 614.589 213.059 614.567C212.317 614.198 211.594 615.098 212.113 615.744L220.212 625.799C220.524 626.187 220.166 626.748 219.683 626.628C219.608 626.61 219.537 626.574 219.477 626.525L217.911 625.228C217.439 624.837 216.799 624.717 216.217 624.91C216.036 624.97 215.847 625 215.657 625H215.434C215.238 625 215.042 624.981 214.849 624.942L213.415 624.658C213.222 624.619 213.026 624.6 212.83 624.6H211.686C211.307 624.6 210.931 624.528 210.578 624.388L209.256 623.863C209.152 623.822 209.06 623.756 208.987 623.671C208.49 623.095 207.563 623.624 207.805 624.345L207.842 624.456C207.874 624.551 207.927 624.637 207.998 624.707L208.83 625.534C208.929 625.632 208.86 625.8 208.721 625.8C208.704 625.8 208.688 625.798 208.672 625.792C207.857 625.519 206.112 624.751 205.474 623.8C204.669 622.6 203.863 621.8 203.461 621C203.164 620.412 202.166 618.653 201.589 617.647C201.494 617.482 201.385 617.328 201.26 617.185C200.405 616.207 198.927 614.6 198.628 614.6H197.989C197.882 614.6 197.78 614.642 197.705 614.717C197.547 614.874 197.293 614.874 197.135 614.717L196.826 614.409C196.3 613.888 195.407 614.26 195.407 615V616.19C195.407 616.858 194.865 617.4 194.197 617.4C193.936 617.4 193.683 617.484 193.474 617.64L192.938 618.039C192.448 618.404 192.081 618.911 191.886 619.49L191.606 620.327C191.457 620.769 191.204 621.168 190.893 621.517C190.325 622.155 189.609 623.076 189.366 623.8C188.963 625 185.339 625.4 184.936 625.4C184.534 625.4 182.118 626.2 179.299 626.6C176.48 627 176.077 627 175.674 627C175.385 627 173.777 627.43 172.771 627.71C172.559 627.77 172.355 627.853 172.161 627.957C170.601 628.792 167.822 630.2 167.218 630.2C166.412 630.2 165.607 630.6 164.802 631.4C164.318 631.88 164.107 631.79 164.031 631.603C163.982 631.48 163.943 631.348 163.849 631.254C163.697 631.103 163.659 630.87 163.747 630.674C163.874 630.39 164.046 629.982 164.223 629.501C164.343 629.173 164.528 628.872 164.745 628.598C165.163 628.073 165.703 627.304 166.01 627C166.25 626.761 167.252 626.063 168.08 625.502C168.564 625.174 168.929 624.699 169.115 624.146L169.2 623.894C169.466 623.102 169.258 622.227 168.665 621.638C168.254 621.229 167.698 621 167.118 621H166.305C166.108 621 165.913 620.981 165.72 620.942L164.705 620.741C164.239 620.648 163.757 620.665 163.305 620.808C162.349 621.112 161.177 621.547 161.177 621.8C161.177 622.113 154.227 628.333 150.535 631.596C150.404 631.712 150.208 631.704 150.084 631.581C149.977 631.475 149.811 631.454 149.681 631.532L149.188 631.825C148.553 632.204 147.734 631.841 147.609 631.113C147.539 630.7 147.486 630.342 147.486 630.2C147.486 629.8 147.083 628.2 147.083 627.8C147.083 627.4 145.875 625.8 145.472 625.4C145.069 625 144.667 624.2 144.667 623.8C144.667 623.4 143.861 623 143.459 622.6C143.136 622.28 142.787 622.467 142.653 622.6L140.64 624.2L134.064 628.175C133.077 628.772 131.862 627.874 132.144 626.755L132.164 626.675C132.177 626.625 132.183 626.574 132.183 626.523C132.183 626.035 131.645 625.737 131.232 625.997L125.214 629.772C124.768 630.052 124.253 630.2 123.726 630.2H123.228C123.058 630.2 122.921 630.063 122.921 629.893C122.921 629.833 122.939 629.773 122.973 629.722L124.083 628.069C124.274 627.783 124.07 627.4 123.726 627.4H123.625C123.162 627.4 122.676 627.324 122.343 627.002C122.212 626.876 122.116 626.735 122.116 626.6C122.116 625.905 121.207 625.681 120.6 626.018L108.021 633L107.286 633.487C107.011 633.669 106.645 633.633 106.41 633.4C106.177 633.168 106.14 632.802 106.324 632.529L106.707 631.959C106.777 631.853 106.861 631.757 106.956 631.673L110.678 628.345C110.786 628.248 110.901 628.16 111.021 628.08L113.964 626.131C114.294 625.913 114.578 625.631 114.799 625.302L115.911 623.644C116.018 623.485 116.075 623.298 116.075 623.106C116.075 622.456 115.447 621.992 114.826 622.182L111.117 623.315C110.933 623.372 110.754 623.446 110.585 623.536L99.5645 629.4L85.8728 638.2Z" fill="#0C6291"/>
</g>
</g>
<defs>
<clipPath id="clip0">
<rect width="360" height="640" fill="white"/>
</clipPath>
<clipPath id="clip1">
<rect width="202" height="167" fill="white" transform="translate(82 473)"/>
</clipPath>
</defs>
</svg>
