<svg width="202" height="167" viewBox="0 0 202 167" fill="none" xmlns="http://www.w3.org/2000/svg">
<g clip-path="url(#clip0)">
<circle cx="98" cy="92" r="75" fill="#DA4167"/>
<path d="M50.5503 139.117L29.6402 150.759L25.2169 156.38L22 162H32.0529H63.0159H80.3069L128.963 156.781L146.254 154.774L167.566 162L174 152.766L158.72 143.934L153.894 140.321L144.646 132.292L114.487 107.803H111.672L110.868 107L98.4021 107.401L85.9365 116.234L76.2857 122.657L50.5503 139.117Z" fill="#F9F4F4"/>
<path d="M3.87283 165.2L1.8638 166.456C-0.691262 168.054 0.440945 172 3.45455 172H195.484C198.046 172 199.429 168.996 197.764 167.049L195.39 164.276C195.233 164.093 195.056 163.93 194.861 163.789C192.362 161.989 187.812 158.615 187.503 158C187.1 157.2 183.476 155.6 182.671 154.8C181.865 154 178.644 151.6 177.435 150.8C176.6 150.247 175.102 149.454 174.191 148.991C173.939 148.863 173.67 148.774 173.392 148.724L169.966 148.106C169.58 148.036 169.211 147.891 168.881 147.679L156.898 140L155.572 139.177C154.542 138.537 153.5 139.975 154.428 140.755C154.464 140.785 154.501 140.812 154.54 140.837C155.637 141.52 157.876 142.971 158.509 143.6C159.314 144.4 162.938 146 163.744 146.4C164.549 146.8 165.355 148 166.965 148.8C167.195 148.914 167.403 149.038 167.589 149.168C168.655 149.907 168.311 151.607 167.016 151.678C166.848 151.687 166.693 151.665 166.563 151.6C165.976 151.308 163.784 150.331 162.485 149.756C162.251 149.652 162.031 149.519 161.831 149.36L160.119 148C159.583 147.6 158.428 146.72 158.106 146.4C157.914 146.21 157.618 145.821 157.353 145.453C157.048 145.03 156.652 144.678 156.185 144.446L154.482 143.6L152.362 142.547C152.165 142.449 151.979 142.33 151.809 142.192L141.193 133.6L152.709 145.828C152.817 145.942 152.934 146.048 153.058 146.145L159.863 151.402C160.034 151.534 160.189 151.683 160.327 151.848L161.693 153.475C161.982 153.821 162.19 154.227 162.3 154.664L162.574 155.754C162.783 156.582 162.346 157.435 161.553 157.75C161.15 157.911 160.701 157.909 160.294 157.757C159.599 157.496 158.749 157.2 158.509 157.2H158.405C157.692 157.2 157.003 156.946 156.46 156.484L154.482 154.8L151.086 151.802C150.935 151.668 150.761 151.563 150.573 151.491L147.659 150.378C147.028 150.137 146.428 150.925 146.428 151.6C146.428 152.228 145.864 152.707 145.244 152.604L144.358 152.457C144.133 152.42 143.924 152.313 143.762 152.152L142.086 150.487C141.818 150.221 141.367 150.464 141.441 150.834C141.504 151.146 141.182 151.391 140.903 151.24C140.379 150.955 139.796 150.613 139.582 150.4C139.26 150.08 138.374 148.667 137.971 148L136.636 146.011C136.454 145.739 136.227 145.498 135.967 145.299L131.184 141.645C131.145 141.615 131.103 141.589 131.059 141.567C130.317 141.198 129.594 142.098 130.113 142.744L138.212 152.799C138.524 153.187 138.166 153.748 137.683 153.628C137.608 153.61 137.537 153.574 137.477 153.525L135.911 152.228C135.439 151.837 134.799 151.717 134.217 151.91C134.036 151.97 133.847 152 133.657 152H133.434C133.238 152 133.042 151.981 132.849 151.942L131.415 151.658C131.222 151.619 131.026 151.6 130.83 151.6H129.686C129.307 151.6 128.931 151.528 128.578 151.388L127.256 150.863C127.152 150.822 127.06 150.756 126.987 150.671C126.49 150.095 125.563 150.624 125.805 151.345L125.842 151.456C125.874 151.551 125.927 151.637 125.998 151.707L126.83 152.534C126.929 152.632 126.86 152.8 126.721 152.8C126.704 152.8 126.688 152.798 126.672 152.792C125.857 152.519 124.112 151.751 123.474 150.8C122.669 149.6 121.863 148.8 121.461 148C121.164 147.412 120.166 145.653 119.589 144.647C119.494 144.482 119.385 144.328 119.26 144.185C118.405 143.207 116.927 141.6 116.628 141.6H115.989C115.882 141.6 115.78 141.642 115.705 141.717C115.547 141.874 115.293 141.874 115.135 141.717L114.826 141.409C114.3 140.888 113.407 141.26 113.407 142V143.19C113.407 143.858 112.865 144.4 112.197 144.4C111.936 144.4 111.683 144.484 111.474 144.64L110.938 145.039C110.448 145.404 110.081 145.911 109.886 146.49L109.606 147.327C109.457 147.769 109.204 148.168 108.893 148.517C108.325 149.155 107.609 150.076 107.366 150.8C106.963 152 103.339 152.4 102.936 152.4C102.534 152.4 100.118 153.2 97.2987 153.6C94.4798 154 94.0771 154 93.6744 154C93.3853 154 91.7773 154.43 90.7713 154.71C90.5592 154.77 90.3553 154.853 90.1611 154.957C88.6006 155.792 85.8222 157.2 85.2177 157.2C84.4123 157.2 83.6069 157.6 82.8015 158.4C82.3185 158.88 82.107 158.79 82.0315 158.603C81.9819 158.48 81.9433 158.348 81.8493 158.254C81.6967 158.103 81.6587 157.87 81.7469 157.674C81.8744 157.39 82.046 156.982 82.2227 156.501C82.3431 156.173 82.528 155.872 82.7452 155.598C83.1632 155.073 83.7031 154.304 84.0096 154C84.2499 153.761 85.252 153.063 86.08 152.502C86.5635 152.174 86.9294 151.699 87.1152 151.146L87.1996 150.894C87.4655 150.102 87.2584 149.227 86.6653 148.638C86.254 148.229 85.6977 148 85.118 148H84.3047C84.1085 148 83.9127 147.981 83.7202 147.942L82.7048 147.741C82.239 147.648 81.7573 147.665 81.3047 147.808C80.349 148.112 79.1773 148.547 79.1773 148.8C79.1773 149.113 72.2267 155.333 68.5348 158.596C68.404 158.712 68.2081 158.704 68.0842 158.581C67.9768 158.475 67.8108 158.454 67.6809 158.532L67.188 158.825C66.5534 159.204 65.734 158.841 65.6092 158.113C65.5386 157.7 65.4855 157.342 65.4855 157.2C65.4855 156.8 65.0829 155.2 65.0829 154.8C65.0829 154.4 63.8748 152.8 63.4721 152.4C63.0694 152 62.6667 151.2 62.6667 150.8C62.6667 150.4 61.8613 150 61.4586 149.6C61.1364 149.28 60.7874 149.467 60.6532 149.6L58.6397 151.2L52.0645 155.175C51.0773 155.772 49.8624 154.874 50.144 153.755L50.1643 153.675C50.1767 153.625 50.183 153.574 50.183 153.523C50.183 153.035 49.6454 152.737 49.2317 152.997L43.214 156.772C42.7683 157.052 42.2527 157.2 41.7264 157.2H41.2276C41.0583 157.2 40.921 157.063 40.921 156.893C40.921 156.833 40.9391 156.773 40.973 156.722L42.083 155.069C42.2744 154.783 42.07 154.4 41.7264 154.4H41.625C41.1619 154.4 40.676 154.324 40.343 154.002C40.2117 153.876 40.1156 153.735 40.1156 153.6C40.1156 152.905 39.207 152.681 38.5995 153.018L26.0212 160L25.2863 160.487C25.0108 160.669 24.6449 160.633 24.4104 160.4C24.1766 160.168 24.1404 159.802 24.324 159.529L24.7066 158.959C24.7773 158.853 24.861 158.757 24.9556 158.673L28.6781 155.345C28.786 155.248 28.9006 155.16 29.0212 155.08L31.9641 153.131C32.2943 152.913 32.578 152.631 32.7987 152.302L33.9112 150.644C34.0181 150.485 34.0751 150.298 34.0751 150.106C34.0751 149.456 33.4474 148.992 32.8264 149.182L29.1169 150.315C28.9328 150.372 28.7545 150.446 28.5845 150.536L17.5645 156.4L3.87283 165.2Z" fill="#0C6291"/>
</g>
<defs>
<clipPath id="clip0">
<rect width="202" height="167" fill="white"/>
</clipPath>
</defs>
</svg>
