<svg width="360" height="320" viewBox="0 0 360 320" fill="none" xmlns="http://www.w3.org/2000/svg">
<path d="M232.936 11.676H229.552C229.66 12.576 229.732 13.584 229.732 14.808V20.496C229.732 27.3 229.3 30.216 226.744 33.204C224.512 35.724 221.452 37.164 218.14 37.992L220.48 40.476C223.108 39.576 226.708 38.028 229.048 35.22C231.64 32.124 232.828 29.28 232.828 20.64V14.808C232.828 13.584 232.864 12.576 232.936 11.676ZM216.232 11.964H212.956C213.028 12.648 213.1 13.908 213.1 14.556V26.544C213.1 27.624 212.992 28.776 212.92 29.316H216.232C216.16 28.668 216.088 27.48 216.088 26.58V14.556C216.088 13.692 216.16 12.648 216.232 11.964Z" fill="#DA4167"/>
<circle cx="180" cy="165" r="125" fill="#DA4167"/>
<path d="M153.175 283L133.191 292.879C133.029 292.959 132.879 293.061 132.744 293.181L127.904 297.509C126.535 298.733 127.401 301 129.237 301H310.265C312.034 301 312.932 298.873 311.699 297.606L309.42 295.262C309.251 295.089 309.053 294.947 308.833 294.845L305.108 293.104C304.96 293.035 304.805 292.984 304.645 292.953L291.461 290.371C291.335 290.346 291.206 290.333 291.077 290.333H285.863C285.581 290.333 285.303 290.274 285.046 290.159L277.016 286.569C276.672 286.415 276.378 286.167 276.168 285.853L272.092 279.74C271.914 279.473 271.674 279.252 271.393 279.098L266.825 276.582C266.53 276.419 266.198 276.333 265.86 276.333H261.012C260.701 276.333 260.395 276.261 260.118 276.122L255.872 274L250.094 270.906C249.801 270.749 249.552 270.521 249.369 270.244L244.591 263L241.786 259.095C241.585 258.814 241.316 258.591 241 258.45C237.462 256.882 230.722 254.551 228.642 256.333C226.987 257.751 225.378 258.361 224.359 258.573C223.867 258.675 223.379 258.477 223.01 258.136L219.102 254.53C218.733 254.189 218.248 254 217.746 254H214.105C213.692 254 213.289 254.128 212.952 254.366L206.857 258.667L200.633 263L184.464 272.567C184.352 272.633 184.234 272.688 184.111 272.732L177.682 275L171.847 276.333L163.289 279.333L158.621 280.667L153.175 283Z" fill="#042F46"/>
<path d="M153.175 283L133.191 292.879C133.029 292.959 132.879 293.061 132.744 293.181L127.904 297.509C126.535 298.733 127.401 301 129.237 301H310.265C312.034 301 312.932 298.873 311.699 297.606L309.42 295.262C309.251 295.089 309.053 294.947 308.833 294.845L305.108 293.104C304.96 293.035 304.805 292.984 304.645 292.953L291.461 290.371C291.335 290.346 291.206 290.333 291.077 290.333H285.863C285.581 290.333 285.303 290.274 285.046 290.159L277.016 286.569C276.672 286.415 276.378 286.167 276.168 285.853L272.092 279.74C271.914 279.473 271.674 279.252 271.393 279.098L266.825 276.582C266.53 276.419 266.198 276.333 265.86 276.333H261.012C260.701 276.333 260.395 276.261 260.118 276.122L255.872 274L250.094 270.906C249.801 270.749 249.552 270.521 249.369 270.244L244.591 263L241.786 259.095C241.585 258.814 241.316 258.591 241 258.45C237.462 256.882 230.722 254.551 228.642 256.333C226.987 257.751 225.378 258.361 224.359 258.573C223.867 258.675 223.379 258.477 223.01 258.136L219.102 254.53C218.733 254.189 218.248 254 217.746 254H214.105C213.692 254 213.289 254.128 212.952 254.366L206.857 258.667L200.633 263L184.464 272.567C184.352 272.633 184.234 272.688 184.111 272.732L177.682 275L171.847 276.333L163.289 279.333L158.621 280.667L153.175 283Z" fill="url(#paint0_linear)"/>
<path d="M89.5503 268.117L68.6402 279.759L64.2169 285.38L61 291H71.0529H102.016H119.307L167.963 285.781L185.254 283.774L206.566 291L213 281.766L197.72 272.934L192.894 269.321L183.646 261.292L153.487 236.803H150.672L149.868 236L137.402 236.401L124.937 245.234L115.286 251.657L89.5503 268.117Z" fill="#F9F4F4"/>
<path d="M42.8728 294.2L40.8638 295.456C38.3087 297.054 39.4409 301 42.4545 301H234.484C237.046 301 238.429 297.996 236.764 296.049L234.39 293.276C234.233 293.093 234.056 292.93 233.861 292.789C231.362 290.989 226.812 287.615 226.503 287C226.1 286.2 222.476 284.6 221.671 283.8C220.865 283 217.644 280.6 216.435 279.8C215.6 279.247 214.102 278.454 213.191 277.991C212.939 277.863 212.67 277.774 212.392 277.724L208.966 277.106C208.58 277.036 208.211 276.891 207.881 276.679L195.898 269L194.572 268.177C193.542 267.537 192.5 268.975 193.428 269.755C193.464 269.785 193.501 269.812 193.54 269.837C194.637 270.52 196.876 271.971 197.509 272.6C198.314 273.4 201.938 275 202.744 275.4C203.549 275.8 204.355 277 205.965 277.8C206.195 277.914 206.403 278.038 206.589 278.168C207.655 278.907 207.311 280.607 206.016 280.678C205.848 280.687 205.693 280.665 205.563 280.6C204.976 280.308 202.784 279.331 201.485 278.756C201.251 278.652 201.031 278.519 200.831 278.36L199.119 277C198.583 276.6 197.428 275.72 197.106 275.4C196.914 275.21 196.618 274.821 196.353 274.453C196.048 274.03 195.652 273.678 195.185 273.446L193.482 272.6L191.362 271.547C191.165 271.449 190.979 271.33 190.809 271.192L180.193 262.6L191.709 274.828C191.817 274.942 191.934 275.048 192.058 275.145L198.863 280.402C199.034 280.534 199.189 280.683 199.327 280.848L200.693 282.475C200.982 282.821 201.19 283.227 201.3 283.664L201.574 284.754C201.783 285.582 201.346 286.435 200.553 286.75C200.15 286.911 199.701 286.909 199.294 286.757C198.599 286.496 197.749 286.2 197.509 286.2H197.405C196.692 286.2 196.003 285.946 195.46 285.484L193.482 283.8L190.086 280.802C189.935 280.668 189.761 280.563 189.573 280.491L186.659 279.378C186.028 279.137 185.428 279.925 185.428 280.6C185.428 281.228 184.864 281.707 184.244 281.604L183.358 281.457C183.133 281.42 182.924 281.313 182.762 281.152L181.086 279.487C180.818 279.221 180.367 279.464 180.441 279.834C180.504 280.146 180.182 280.391 179.903 280.24C179.379 279.955 178.796 279.613 178.582 279.4C178.26 279.08 177.374 277.667 176.971 277L175.636 275.011C175.454 274.739 175.227 274.498 174.967 274.299L170.184 270.645C170.145 270.615 170.103 270.589 170.059 270.567C169.317 270.198 168.594 271.098 169.113 271.744L177.212 281.799C177.524 282.187 177.166 282.748 176.683 282.628C176.608 282.61 176.537 282.574 176.477 282.525L174.911 281.228C174.439 280.837 173.799 280.717 173.217 280.91C173.036 280.97 172.847 281 172.657 281H172.434C172.238 281 172.042 280.981 171.849 280.942L170.415 280.658C170.222 280.619 170.026 280.6 169.83 280.6H168.686C168.307 280.6 167.931 280.528 167.578 280.388L166.256 279.863C166.152 279.822 166.06 279.756 165.987 279.671C165.49 279.095 164.563 279.624 164.805 280.345L164.842 280.456C164.874 280.551 164.927 280.637 164.998 280.707L165.83 281.534C165.929 281.632 165.86 281.8 165.721 281.8C165.704 281.8 165.688 281.798 165.672 281.792C164.857 281.519 163.112 280.751 162.474 279.8C161.669 278.6 160.863 277.8 160.461 277C160.164 276.412 159.166 274.653 158.589 273.647C158.494 273.482 158.385 273.328 158.26 273.185C157.405 272.207 155.927 270.6 155.628 270.6H154.989C154.882 270.6 154.78 270.642 154.705 270.717C154.547 270.874 154.293 270.874 154.135 270.717L153.826 270.409C153.3 269.888 152.407 270.26 152.407 271V272.19C152.407 272.858 151.865 273.4 151.197 273.4C150.936 273.4 150.683 273.484 150.474 273.64L149.938 274.039C149.448 274.404 149.081 274.911 148.886 275.49L148.606 276.327C148.457 276.769 148.204 277.168 147.893 277.517C147.325 278.155 146.609 279.076 146.366 279.8C145.963 281 142.339 281.4 141.936 281.4C141.534 281.4 139.118 282.2 136.299 282.6C133.48 283 133.077 283 132.674 283C132.385 283 130.777 283.43 129.771 283.71C129.559 283.77 129.355 283.853 129.161 283.957C127.601 284.792 124.822 286.2 124.218 286.2C123.412 286.2 122.607 286.6 121.802 287.4C121.318 287.88 121.107 287.79 121.031 287.603C120.982 287.48 120.943 287.348 120.849 287.254C120.697 287.103 120.659 286.87 120.747 286.674C120.874 286.39 121.046 285.982 121.223 285.501C121.343 285.173 121.528 284.872 121.745 284.598C122.163 284.073 122.703 283.304 123.01 283C123.25 282.761 124.252 282.063 125.08 281.502C125.564 281.174 125.929 280.699 126.115 280.146L126.2 279.894C126.466 279.102 126.258 278.227 125.665 277.638C125.254 277.229 124.698 277 124.118 277H123.305C123.108 277 122.913 276.981 122.72 276.942L121.705 276.741C121.239 276.648 120.757 276.665 120.305 276.808C119.349 277.112 118.177 277.547 118.177 277.8C118.177 278.113 111.227 284.333 107.535 287.596C107.404 287.712 107.208 287.704 107.084 287.581C106.977 287.475 106.811 287.454 106.681 287.532L106.188 287.825C105.553 288.204 104.734 287.841 104.609 287.113C104.539 286.7 104.486 286.342 104.486 286.2C104.486 285.8 104.083 284.2 104.083 283.8C104.083 283.4 102.875 281.8 102.472 281.4C102.069 281 101.667 280.2 101.667 279.8C101.667 279.4 100.861 279 100.459 278.6C100.136 278.28 99.7874 278.467 99.6532 278.6L97.6397 280.2L91.0645 284.175C90.0773 284.772 88.8624 283.874 89.144 282.755L89.1643 282.675C89.1767 282.625 89.183 282.574 89.183 282.523C89.183 282.035 88.6454 281.737 88.2317 281.997L82.214 285.772C81.7683 286.052 81.2527 286.2 80.7264 286.2H80.2276C80.0583 286.2 79.921 286.063 79.921 285.893C79.921 285.833 79.9391 285.773 79.973 285.722L81.083 284.069C81.2744 283.783 81.07 283.4 80.7264 283.4H80.625C80.1619 283.4 79.676 283.324 79.343 283.002C79.2117 282.876 79.1156 282.735 79.1156 282.6C79.1156 281.905 78.207 281.681 77.5995 282.018L65.0212 289L64.2863 289.487C64.0108 289.669 63.6449 289.633 63.4104 289.4C63.1766 289.168 63.1404 288.802 63.324 288.529L63.7066 287.959C63.7773 287.853 63.861 287.757 63.9556 287.673L67.6781 284.345C67.786 284.248 67.9006 284.16 68.0212 284.08L70.9641 282.131C71.2943 281.913 71.578 281.631 71.7987 281.302L72.9112 279.644C73.0181 279.485 73.0751 279.298 73.0751 279.106C73.0751 278.456 72.4474 277.992 71.8264 278.182L68.1169 279.315C67.9328 279.372 67.7545 279.446 67.5845 279.536L56.5645 285.4L42.8728 294.2Z" fill="#0C6291"/>
<path d="M213.316 75.18V78.168C214.288 78.096 215.44 78.06 216.556 78.06H230.668C231.892 78.06 233.116 78.096 233.98 78.168V75.18C233.116 75.324 231.856 75.36 230.704 75.36H216.556C215.404 75.36 214.252 75.324 213.316 75.18ZM236.608 84.684L234.556 83.388C234.16 83.604 233.404 83.676 232.576 83.676H213.604C212.632 83.676 211.408 83.604 210.076 83.46V86.484C211.372 86.412 212.74 86.376 213.604 86.376H232.72C232.072 88.968 230.632 92.028 228.436 94.332C225.376 97.572 220.876 99.876 215.764 100.92L217.996 103.476C222.604 102.216 227.104 100.092 230.884 95.952C233.548 93.036 235.168 89.292 236.14 85.728C236.212 85.476 236.428 85.008 236.608 84.684Z" fill="#FFFFF0"/>
<path d="M222.388 127.264L219.76 128.164C220.516 129.784 222.172 134.356 222.568 135.976L225.232 135.04C224.764 133.456 223 128.704 222.388 127.264ZM235.42 129.28L232.324 128.308C231.784 132.916 229.912 137.488 227.356 140.62C224.404 144.328 219.832 147.064 215.656 148.288L218.032 150.7C222.064 149.152 226.456 146.38 229.768 142.132C232.36 138.892 233.908 135.04 234.88 131.08C235.024 130.612 235.168 130.036 235.42 129.28ZM214.036 129.064L211.372 130.108C212.092 131.368 214.036 136.336 214.576 138.208L217.312 137.2C216.628 135.328 214.756 130.612 214.036 129.064Z" fill="#FFFFF0"/>
<path d="M224.332 170.028L220.984 168.948C220.768 169.884 220.228 171.18 219.868 171.792C218.32 175.032 214.756 180.252 208.564 183.96L211.048 185.832C214.972 183.204 217.996 180 220.192 176.976H232.36C231.604 180.252 229.408 184.896 226.6 188.208C223.324 192.024 218.824 195.3 212.236 197.244L214.828 199.584C221.596 197.1 225.88 193.788 229.156 189.792C232.36 185.904 234.592 181.044 235.564 177.408C235.744 176.832 236.104 176.004 236.392 175.5L233.98 174.024C233.404 174.276 232.612 174.384 231.64 174.384H221.884C222.208 173.88 222.496 173.376 222.748 172.872C223.072 172.188 223.72 170.964 224.332 170.028Z" fill="#FFFFF0"/>
<path d="M233.8 220.916L231.964 219.512C231.388 219.692 230.452 219.8 229.264 219.8H215.368C214.288 219.8 212.236 219.656 211.732 219.584V222.86C212.128 222.824 214.108 222.68 215.368 222.68H229.408C228.508 225.668 225.88 229.916 223.432 232.688C219.724 236.828 214.396 241.112 208.6 243.38L210.904 245.792C216.232 243.38 221.092 239.42 224.944 235.28C228.616 238.556 232.432 242.804 234.844 245.972L237.364 243.812C235.024 240.968 230.632 236.288 226.852 233.048C229.408 229.808 231.676 225.596 232.9 222.5C233.116 221.996 233.584 221.204 233.8 220.916Z" fill="#FFFFF0"/>
<defs>
<linearGradient id="paint0_linear" x1="219.111" y1="254" x2="219.111" y2="301" gradientUnits="userSpaceOnUse">
<stop offset="0.136746" stop-color="white"/>
<stop offset="0.436254" stop-color="#6070A9" stop-opacity="0.32"/>
<stop offset="0.627809" stop-color="#848AA2" stop-opacity="0.23"/>
</linearGradient>
</defs>
</svg>
