<svg width="360" height="780" viewBox="0 0 360 780" fill="none" xmlns="http://www.w3.org/2000/svg">
<g clip-path="url(#clip0)">
<rect width="360" height="780" fill="#FFFFF0"/>
<g clip-path="url(#clip1)">
<circle cx="177" cy="705" r="75" fill="#DA4167"/>
<path d="M129.55 752.117L108.64 763.759L104.217 769.38L101 775H111.053H142.016H159.307L207.963 769.781L225.254 767.774L246.566 775L253 765.766L237.72 756.934L232.894 753.321L223.646 745.292L193.487 720.803H190.672L189.868 720L177.402 720.401L164.937 729.234L155.286 735.657L129.55 752.117Z" fill="#F9F4F4"/>
<path d="M82.8728 778.2L80.8638 779.456C78.3087 781.054 79.4409 785 82.4545 785H274.484C277.046 785 278.429 781.996 276.764 780.049L274.39 777.276C274.233 777.093 274.056 776.93 273.861 776.789C271.362 774.989 266.812 771.615 266.503 771C266.1 770.2 262.476 768.6 261.671 767.8C260.865 767 257.644 764.6 256.435 763.8C255.6 763.247 254.102 762.454 253.191 761.991C252.939 761.863 252.67 761.774 252.392 761.724L248.966 761.106C248.58 761.036 248.211 760.891 247.881 760.679L235.898 753L234.572 752.177C233.542 751.537 232.5 752.975 233.428 753.755C233.464 753.785 233.501 753.812 233.54 753.837C234.637 754.52 236.876 755.971 237.509 756.6C238.314 757.4 241.938 759 242.744 759.4C243.549 759.8 244.355 761 245.965 761.8C246.195 761.914 246.403 762.038 246.589 762.168C247.655 762.907 247.311 764.607 246.016 764.678C245.848 764.687 245.693 764.665 245.563 764.6C244.976 764.308 242.784 763.331 241.485 762.756C241.251 762.652 241.031 762.519 240.831 762.36L239.119 761C238.583 760.6 237.428 759.72 237.106 759.4C236.914 759.21 236.618 758.821 236.353 758.453C236.048 758.03 235.652 757.678 235.185 757.446L233.482 756.6L231.362 755.547C231.165 755.449 230.979 755.33 230.809 755.192L220.193 746.6L231.709 758.828C231.817 758.942 231.934 759.048 232.058 759.145L238.863 764.402C239.034 764.534 239.189 764.683 239.327 764.848L240.693 766.475C240.982 766.821 241.19 767.227 241.3 767.664L241.574 768.754C241.783 769.582 241.346 770.435 240.553 770.75C240.15 770.911 239.701 770.909 239.294 770.757C238.599 770.496 237.749 770.2 237.509 770.2H237.405C236.692 770.2 236.003 769.946 235.46 769.484L233.482 767.8L230.086 764.802C229.935 764.668 229.761 764.563 229.573 764.491L226.659 763.378C226.028 763.137 225.428 763.925 225.428 764.6C225.428 765.228 224.864 765.707 224.244 765.604L223.358 765.457C223.133 765.42 222.924 765.313 222.762 765.152L221.086 763.487C220.818 763.221 220.367 763.464 220.441 763.834C220.504 764.146 220.182 764.391 219.903 764.24C219.379 763.955 218.796 763.613 218.582 763.4C218.26 763.08 217.374 761.667 216.971 761L215.636 759.011C215.454 758.739 215.227 758.498 214.967 758.299L210.184 754.645C210.145 754.615 210.103 754.589 210.059 754.567C209.317 754.198 208.594 755.098 209.113 755.744L217.212 765.799C217.524 766.187 217.166 766.748 216.683 766.628C216.608 766.61 216.537 766.574 216.477 766.525L214.911 765.228C214.439 764.837 213.799 764.717 213.217 764.91C213.036 764.97 212.847 765 212.657 765H212.434C212.238 765 212.042 764.981 211.849 764.942L210.415 764.658C210.222 764.619 210.026 764.6 209.83 764.6H208.686C208.307 764.6 207.931 764.528 207.578 764.388L206.256 763.863C206.152 763.822 206.06 763.756 205.987 763.671C205.49 763.095 204.563 763.624 204.805 764.345L204.842 764.456C204.874 764.551 204.927 764.637 204.998 764.707L205.83 765.534C205.929 765.632 205.86 765.8 205.721 765.8C205.704 765.8 205.688 765.798 205.672 765.792C204.857 765.519 203.112 764.751 202.474 763.8C201.669 762.6 200.863 761.8 200.461 761C200.164 760.412 199.166 758.653 198.589 757.647C198.494 757.482 198.385 757.328 198.26 757.185C197.405 756.207 195.927 754.6 195.628 754.6H194.989C194.882 754.6 194.78 754.642 194.705 754.717C194.547 754.874 194.293 754.874 194.135 754.717L193.826 754.409C193.3 753.888 192.407 754.26 192.407 755V756.19C192.407 756.858 191.865 757.4 191.197 757.4C190.936 757.4 190.683 757.484 190.474 757.64L189.938 758.039C189.448 758.404 189.081 758.911 188.886 759.49L188.606 760.327C188.457 760.769 188.204 761.168 187.893 761.517C187.325 762.155 186.609 763.076 186.366 763.8C185.963 765 182.339 765.4 181.936 765.4C181.534 765.4 179.118 766.2 176.299 766.6C173.48 767 173.077 767 172.674 767C172.385 767 170.777 767.43 169.771 767.71C169.559 767.77 169.355 767.853 169.161 767.957C167.601 768.792 164.822 770.2 164.218 770.2C163.412 770.2 162.607 770.6 161.802 771.4C161.318 771.88 161.107 771.79 161.031 771.603C160.982 771.48 160.943 771.348 160.849 771.254C160.697 771.103 160.659 770.87 160.747 770.674C160.874 770.39 161.046 769.982 161.223 769.501C161.343 769.173 161.528 768.872 161.745 768.598C162.163 768.073 162.703 767.304 163.01 767C163.25 766.761 164.252 766.063 165.08 765.502C165.564 765.174 165.929 764.699 166.115 764.146L166.2 763.894C166.466 763.102 166.258 762.227 165.665 761.638C165.254 761.229 164.698 761 164.118 761H163.305C163.108 761 162.913 760.981 162.72 760.942L161.705 760.741C161.239 760.648 160.757 760.665 160.305 760.808C159.349 761.112 158.177 761.547 158.177 761.8C158.177 762.113 151.227 768.333 147.535 771.596C147.404 771.712 147.208 771.704 147.084 771.581C146.977 771.475 146.811 771.454 146.681 771.532L146.188 771.825C145.553 772.204 144.734 771.841 144.609 771.113C144.539 770.7 144.486 770.342 144.486 770.2C144.486 769.8 144.083 768.2 144.083 767.8C144.083 767.4 142.875 765.8 142.472 765.4C142.069 765 141.667 764.2 141.667 763.8C141.667 763.4 140.861 763 140.459 762.6C140.136 762.28 139.787 762.467 139.653 762.6L137.64 764.2L131.064 768.175C130.077 768.772 128.862 767.874 129.144 766.755L129.164 766.675C129.177 766.625 129.183 766.574 129.183 766.523C129.183 766.035 128.645 765.737 128.232 765.997L122.214 769.772C121.768 770.052 121.253 770.2 120.726 770.2H120.228C120.058 770.2 119.921 770.063 119.921 769.893C119.921 769.833 119.939 769.773 119.973 769.722L121.083 768.069C121.274 767.783 121.07 767.4 120.726 767.4H120.625C120.162 767.4 119.676 767.324 119.343 767.002C119.212 766.876 119.116 766.735 119.116 766.6C119.116 765.905 118.207 765.681 117.6 766.018L105.021 773L104.286 773.487C104.011 773.669 103.645 773.633 103.41 773.4C103.177 773.168 103.14 772.802 103.324 772.529L103.707 771.959C103.777 771.853 103.861 771.757 103.956 771.673L107.678 768.345C107.786 768.248 107.901 768.16 108.021 768.08L110.964 766.131C111.294 765.913 111.578 765.631 111.799 765.302L112.911 763.644C113.018 763.485 113.075 763.298 113.075 763.106C113.075 762.456 112.447 761.992 111.826 762.182L108.117 763.315C107.933 763.372 107.754 763.446 107.585 763.536L96.5645 769.4L82.8728 778.2Z" fill="#0C6291"/>
</g>
</g>
<defs>
<clipPath id="clip0">
<rect width="360" height="780" fill="white"/>
</clipPath>
<clipPath id="clip1">
<rect width="202" height="167" fill="white" transform="translate(79 613)"/>
</clipPath>
</defs>
</svg>
