<svg width="300" height="60" viewBox="0 0 300 60" fill="none" xmlns="http://www.w3.org/2000/svg">
<path fill-rule="evenodd" clip-rule="evenodd" d="M18 59.5021L17.5822 60L282.428 60L299.98 45.5314L300 45.556V0L0 0V44.7035L0.150299 44.5244L18 59.5021ZM70.0493 37.7183C71.2212 36.6929 71.917 35.2402 72.1367 33.3604H69.7808C69.5529 34.8252 69.089 35.8547 68.3892 36.4487C67.6974 37.0347 66.7005 37.3276 65.3984 37.3276C63.9499 37.3276 62.8228 36.758 62.0171 35.6187C61.2114 34.4793 60.8086 32.9453 60.8086 31.0166V29.2954C60.8086 27.2528 61.2318 25.6781 62.0781 24.5713C62.9326 23.4645 64.1086 22.9111 65.606 22.9111C66.8267 22.9111 67.7747 23.2285 68.4502 23.8633C69.1338 24.498 69.5773 25.5234 69.7808 26.9395H72.1367C71.9495 25.0758 71.2863 23.6191 70.147 22.5693C69.0076 21.5114 67.494 20.9824 65.606 20.9824C64.1818 20.9824 62.9285 21.3201 61.8462 21.9956C60.7638 22.6629 59.9256 23.6232 59.3315 24.8765C58.7456 26.1297 58.4526 27.5824 58.4526 29.2344V30.9434C58.4526 33.4661 59.0833 35.4803 60.3447 36.9858C61.6143 38.4914 63.2988 39.2441 65.3984 39.2441C67.3353 39.2441 68.8856 38.7355 70.0493 37.7183ZM94.5801 37.6084C94.6615 38.2757 94.7673 38.7396 94.8975 39H97.2656V38.8047C96.9564 38.0885 96.8018 37.1242 96.8018 35.9116V29.8325C96.7692 28.4979 96.3216 27.4521 95.459 26.6953C94.5964 25.9303 93.4041 25.5479 91.8823 25.5479C90.922 25.5479 90.0391 25.7269 89.2334 26.085C88.4359 26.443 87.8011 26.9313 87.3291 27.5498C86.8652 28.1602 86.6333 28.7949 86.6333 29.4541H88.9038C88.9038 28.8763 89.1764 28.384 89.7217 27.9771C90.2669 27.5701 90.9424 27.3667 91.748 27.3667C92.6676 27.3667 93.3634 27.6027 93.8354 28.0747C94.3074 28.5386 94.5435 29.1652 94.5435 29.9546V30.9922H92.3462C90.45 30.9922 88.9771 31.3747 87.9272 32.1396C86.8856 32.8965 86.3647 33.9626 86.3647 35.3379C86.3647 36.4691 86.7798 37.4049 87.6099 38.1455C88.4481 38.8779 89.5182 39.2441 90.8203 39.2441C92.277 39.2441 93.5303 38.6989 94.5801 37.6084ZM93.1641 36.7295C92.5293 37.0957 91.8579 37.2788 91.1499 37.2788C90.4093 37.2788 89.8031 37.0794 89.3311 36.6807C88.8591 36.2819 88.623 35.7285 88.623 35.0205C88.623 33.401 90.0065 32.5913 92.7734 32.5913H94.5435V35.3013C94.2586 35.8872 93.7988 36.3633 93.1641 36.7295ZM117.365 27.7329C117.764 27.7329 118.134 27.7614 118.476 27.8184V25.7187C118.248 25.6048 117.915 25.5479 117.475 25.5479C116.116 25.5479 115.066 26.1379 114.326 27.3179L114.289 25.792H112.092V39H114.35V29.625C114.879 28.3636 115.884 27.7329 117.365 27.7329ZM135.988 25.792V22.5937H133.729V25.792H131.325V27.5376H133.729V35.7285C133.729 36.8516 133.986 37.7183 134.499 38.3286C135.011 38.939 135.772 39.2441 136.781 39.2441C137.343 39.2441 137.921 39.1628 138.515 39V37.1689C138.059 37.2666 137.701 37.3154 137.44 37.3154C136.911 37.3154 136.537 37.1852 136.317 36.9248C136.098 36.6562 135.988 36.2575 135.988 35.7285V27.5376H138.454V25.792H135.988ZM152.767 28.7827C152.263 29.8162 152.01 30.98 152.01 32.2739V32.4326C152.01 34.4834 152.564 36.1313 153.67 37.3765C154.785 38.6216 156.238 39.2441 158.028 39.2441C159.216 39.2441 160.266 38.9593 161.178 38.3896C162.097 37.82 162.801 37.0265 163.29 36.0093C163.786 34.9839 164.034 33.8283 164.034 32.5425V32.3838C164.034 30.3167 163.477 28.6606 162.362 27.4155C161.255 26.1704 159.802 25.5479 158.004 25.5479C156.84 25.5479 155.803 25.8286 154.891 26.3901C153.988 26.9517 153.28 27.7492 152.767 28.7827ZM155.294 36.0703C154.618 35.1833 154.281 34.0073 154.281 32.5425C154.281 30.8905 154.623 29.6209 155.306 28.7339C155.99 27.8468 156.889 27.4033 158.004 27.4033C159.143 27.4033 160.055 27.855 160.738 28.7583C161.43 29.6535 161.776 30.8254 161.776 32.2739C161.776 33.8934 161.438 35.1548 160.763 36.0581C160.087 36.9533 159.176 37.4009 158.028 37.4009C156.889 37.4009 155.978 36.9574 155.294 36.0703ZM178.775 28.7827C178.27 29.8162 178.018 30.98 178.018 32.2739V32.4326C178.018 34.4834 178.571 36.1313 179.678 37.3765C180.793 38.6216 182.246 39.2441 184.036 39.2441C185.224 39.2441 186.274 38.9593 187.186 38.3896C188.105 37.82 188.809 37.0265 189.297 36.0093C189.794 34.9839 190.042 33.8283 190.042 32.5425V32.3838C190.042 30.3167 189.485 28.6606 188.37 27.4155C187.263 26.1704 185.81 25.5479 184.012 25.5479C182.848 25.5479 181.81 25.8286 180.899 26.3901C179.996 26.9517 179.288 27.7492 178.775 28.7827ZM181.302 36.0703C180.626 35.1833 180.289 34.0073 180.289 32.5425C180.289 30.8905 180.63 29.6209 181.314 28.7339C181.998 27.8468 182.897 27.4033 184.012 27.4033C185.151 27.4033 186.062 27.855 186.746 28.7583C187.438 29.6535 187.784 30.8254 187.784 32.2739C187.784 33.8934 187.446 35.1548 186.771 36.0581C186.095 36.9533 185.184 37.4009 184.036 37.4009C182.897 37.4009 181.985 36.9574 181.302 36.0703ZM206.833 27.4521L206.76 25.792H204.624V39H206.882V29.5884C207.192 28.9536 207.623 28.4409 208.176 28.0503C208.73 27.6597 209.373 27.4644 210.105 27.4644C211.008 27.4644 211.672 27.6922 212.095 28.1479C212.526 28.6037 212.746 29.3076 212.754 30.2598V39H215.012V30.272C214.988 27.1226 213.58 25.5479 210.789 25.5479C209.161 25.5479 207.843 26.1826 206.833 27.4521ZM237.163 34.0806C237.626 34.4142 237.858 34.8862 237.858 35.4966C237.858 36.0744 237.598 36.5382 237.077 36.8882C236.564 37.23 235.881 37.4009 235.026 37.4009C234.099 37.4009 233.35 37.1812 232.78 36.7417C232.219 36.2941 231.918 35.6919 231.877 34.9351H229.619C229.619 35.7163 229.847 36.4447 230.302 37.1201C230.766 37.7874 231.405 38.3083 232.219 38.6826C233.033 39.057 233.968 39.2441 235.026 39.2441C236.532 39.2441 237.757 38.8901 238.701 38.1821C239.645 37.466 240.117 36.5179 240.117 35.3379C240.117 34.6299 239.946 34.0317 239.604 33.5435C239.27 33.047 238.754 32.6239 238.054 32.2739C237.354 31.924 236.438 31.6229 235.307 31.3706C234.184 31.1183 233.407 30.8538 232.976 30.5771C232.544 30.3005 232.329 29.8895 232.329 29.3442C232.329 28.7664 232.561 28.2985 233.024 27.9404C233.488 27.5824 234.131 27.4033 234.953 27.4033C235.751 27.4033 236.41 27.6271 236.931 28.0747C237.46 28.5223 237.724 29.0553 237.724 29.6738L239.995 29.6738C239.995 28.4694 239.527 27.4806 238.591 26.7075C237.663 25.9344 236.451 25.5479 234.953 25.5479C233.529 25.5479 232.357 25.9222 231.438 26.6709C230.526 27.4196 230.07 28.3351 230.07 29.4175C230.07 30.0685 230.229 30.63 230.546 31.1021C230.872 31.5741 231.368 31.981 232.036 32.3228C232.711 32.6646 233.618 32.9575 234.758 33.2017C235.905 33.4458 236.707 33.7388 237.163 34.0806Z" fill="#DA4167"/>
</svg>
