<svg width="300" height="60" viewBox="0 0 300 60" fill="none" xmlns="http://www.w3.org/2000/svg">
<path fill-rule="evenodd" clip-rule="evenodd" d="M282 0.497925L282.418 0H17.5721L0.0202772 14.4686L0 14.444V60H300V15.2965L299.85 15.4756L282 0.497925ZM63.8652 23.2266H61.5093V35.8486C61.5011 36.9473 61.196 37.8018 60.5938 38.4121C59.9997 39.0225 59.2184 39.3276 58.25 39.3276C57.1921 39.3276 56.3823 39.0428 55.8208 38.4731C55.2674 37.9035 54.9907 37.11 54.9907 36.0928H52.647C52.647 37.7204 53.1393 38.9858 54.124 39.8892C55.1087 40.7925 56.4841 41.2441 58.25 41.2441C59.9508 41.2441 61.3099 40.764 62.3271 39.8037C63.3525 38.8434 63.8652 37.5129 63.8652 35.812V23.2266ZM87.0898 39.6084C87.1712 40.2757 87.277 40.7396 87.4072 41H89.7754V40.8047C89.4661 40.0885 89.3115 39.1242 89.3115 37.9116V31.8325C89.279 30.4979 88.8314 29.4521 87.9688 28.6953C87.1061 27.9303 85.9139 27.5479 84.3921 27.5479C83.4318 27.5479 82.5488 27.7269 81.7432 28.085C80.9456 28.443 80.3109 28.9313 79.8389 29.5498C79.375 30.1602 79.1431 30.7949 79.1431 31.4541H81.4136C81.4136 30.8763 81.6862 30.384 82.2314 29.9771C82.7767 29.5702 83.4521 29.3667 84.2578 29.3667C85.1774 29.3667 85.8732 29.6027 86.3452 30.0747C86.8172 30.5386 87.0532 31.1652 87.0532 31.9546V32.9922H84.856C82.9598 32.9922 81.4868 33.3747 80.437 34.1396C79.3953 34.8965 78.8745 35.9626 78.8745 37.3379C78.8745 38.4691 79.2896 39.4049 80.1196 40.1455C80.9578 40.8779 82.028 41.2441 83.3301 41.2441C84.7868 41.2441 86.04 40.6989 87.0898 39.6084ZM85.6738 38.7295C85.0391 39.0957 84.3677 39.2788 83.6597 39.2788C82.9191 39.2788 82.3128 39.0794 81.8408 38.6807C81.3688 38.2819 81.1328 37.7285 81.1328 37.0205C81.1328 35.401 82.5163 34.5913 85.2832 34.5913H87.0532V37.3013C86.7684 37.8872 86.3086 38.3633 85.6738 38.7295ZM114.379 39.4009C115.299 38.172 115.759 36.5526 115.759 34.5425V34.335C115.759 32.2028 115.295 30.5386 114.367 29.3423C113.448 28.146 112.194 27.5479 110.607 27.5479C108.972 27.5479 107.694 28.1175 106.774 29.2568L106.665 27.792H104.602V46.0781H106.86V39.7183C107.779 40.7355 109.041 41.2441 110.644 41.2441C112.215 41.2441 113.46 40.6297 114.379 39.4009ZM112.548 30.7583C113.183 31.6209 113.5 32.7969 113.5 34.2861C113.5 35.9788 113.179 37.2565 112.536 38.1191C111.901 38.9736 111.043 39.4009 109.96 39.4009C108.569 39.4009 107.535 38.7987 106.86 37.5942V31.2832C107.543 30.0706 108.569 29.4644 109.936 29.4644C111.043 29.4644 111.914 29.8957 112.548 30.7583ZM138.227 39.6084C138.308 40.2757 138.414 40.7396 138.544 41H140.912V40.8047C140.603 40.0885 140.448 39.1242 140.448 37.9116V31.8325C140.416 30.4979 139.968 29.4521 139.105 28.6953C138.243 27.9303 137.051 27.5479 135.529 27.5479C134.569 27.5479 133.686 27.7269 132.88 28.085C132.082 28.443 131.448 28.9313 130.976 29.5498C130.512 30.1602 130.28 30.7949 130.28 31.4541H132.55C132.55 30.8763 132.823 30.384 133.368 29.9771C133.913 29.5702 134.589 29.3667 135.395 29.3667C136.314 29.3667 137.01 29.6027 137.482 30.0747C137.954 30.5386 138.19 31.1652 138.19 31.9546V32.9922H135.993C134.097 32.9922 132.624 33.3747 131.574 34.1396C130.532 34.8965 130.011 35.9626 130.011 37.3379C130.011 38.4691 130.426 39.4049 131.256 40.1455C132.095 40.8779 133.165 41.2441 134.467 41.2441C135.924 41.2441 137.177 40.6989 138.227 39.6084ZM136.811 38.7295C136.176 39.0957 135.504 39.2788 134.796 39.2788C134.056 39.2788 133.45 39.0794 132.978 38.6807C132.506 38.2819 132.27 37.7285 132.27 37.0205C132.27 35.401 133.653 34.5913 136.42 34.5913H138.19V37.3013C137.905 37.8872 137.445 38.3633 136.811 38.7295ZM157.948 29.4521L157.875 27.792H155.738V41H157.997V31.5884C158.306 30.9536 158.737 30.4409 159.291 30.0503C159.844 29.6597 160.487 29.4644 161.219 29.4644C162.123 29.4644 162.786 29.6922 163.209 30.1479C163.64 30.6037 163.86 31.3076 163.868 32.2598V41H166.126V32.272C166.102 29.1226 164.694 27.5479 161.903 27.5479C160.275 27.5479 158.957 28.1826 157.948 29.4521ZM182.393 39.4863C183.516 40.6582 184.973 41.2441 186.763 41.2441C188.977 41.2441 190.637 40.3937 191.744 38.6929L190.364 37.6187C189.949 38.1558 189.465 38.5871 188.912 38.9126C188.358 39.2381 187.683 39.4009 186.885 39.4009C185.762 39.4009 184.834 39.0021 184.102 38.2046C183.378 37.3989 182.999 36.3451 182.967 35.043H191.915V34.103C191.915 31.9953 191.438 30.3758 190.486 29.2446C189.534 28.1134 188.2 27.5479 186.482 27.5479C185.433 27.5479 184.456 27.8408 183.553 28.4268C182.658 29.0046 181.958 29.8102 181.453 30.8438C180.957 31.8691 180.708 33.0369 180.708 34.3472V34.7622C180.708 36.7316 181.27 38.3063 182.393 39.4863ZM184.188 30.4043C184.806 29.737 185.571 29.4033 186.482 29.4033C187.426 29.4033 188.175 29.7207 188.729 30.3555C189.282 30.9821 189.591 31.8691 189.656 33.0166V33.1875H183.04C183.187 31.9912 183.569 31.0635 184.188 30.4043ZM213.284 36.0806C213.748 36.4142 213.979 36.8862 213.979 37.4966C213.979 38.0744 213.719 38.5382 213.198 38.8882C212.686 39.23 212.002 39.4009 211.147 39.4009C210.22 39.4009 209.471 39.1812 208.901 38.7417C208.34 38.2941 208.039 37.6919 207.998 36.9351H205.74C205.74 37.7163 205.968 38.4447 206.423 39.1201C206.887 39.7874 207.526 40.3083 208.34 40.6826C209.154 41.057 210.09 41.2441 211.147 41.2441C212.653 41.2441 213.878 40.8901 214.822 40.1821C215.766 39.466 216.238 38.5179 216.238 37.3379C216.238 36.6299 216.067 36.0317 215.725 35.5435C215.391 35.047 214.875 34.6239 214.175 34.2739C213.475 33.924 212.559 33.6229 211.428 33.3706C210.305 33.1183 209.528 32.8538 209.097 32.5771C208.665 32.3005 208.45 31.8895 208.45 31.3442C208.45 30.7664 208.682 30.2985 209.146 29.9404C209.609 29.5824 210.252 29.4033 211.074 29.4033C211.872 29.4033 212.531 29.6271 213.052 30.0747C213.581 30.5223 213.845 31.0553 213.845 31.6738H216.116C216.116 30.4694 215.648 29.4806 214.712 28.7075C213.784 27.9344 212.572 27.5479 211.074 27.5479C209.65 27.5479 208.478 27.9222 207.559 28.6709C206.647 29.4196 206.191 30.3351 206.191 31.4175C206.191 32.0685 206.35 32.63 206.667 33.1021C206.993 33.5741 207.489 33.981 208.157 34.3228C208.832 34.6646 209.74 34.9575 210.879 35.2017C212.026 35.4458 212.828 35.7388 213.284 36.0806ZM232.041 39.4863C233.164 40.6582 234.62 41.2441 236.411 41.2441C238.624 41.2441 240.284 40.3937 241.391 38.6929L240.012 37.6187C239.597 38.1558 239.112 38.5871 238.559 38.9126C238.006 39.2381 237.33 39.4009 236.533 39.4009C235.41 39.4009 234.482 39.0021 233.75 38.2046C233.025 37.3989 232.647 36.3451 232.614 35.043H241.562V34.103C241.562 31.9953 241.086 30.3758 240.134 29.2446C239.182 28.1134 237.847 27.5479 236.13 27.5479C235.08 27.5479 234.104 27.8408 233.2 28.4268C232.305 29.0046 231.605 29.8102 231.101 30.8438C230.604 31.8691 230.356 33.0369 230.356 34.3472V34.7622C230.356 36.7316 230.917 38.3063 232.041 39.4863ZM233.835 30.4043C234.453 29.737 235.218 29.4033 236.13 29.4033C237.074 29.4033 237.823 29.7207 238.376 30.3555C238.929 30.9821 239.239 31.8691 239.304 33.0166V33.1875H232.688C232.834 31.9912 233.216 31.0635 233.835 30.4043Z" fill="#DA4167"/>
</svg>
