<svg width="300" height="60" viewBox="0 0 300 60" fill="none" xmlns="http://www.w3.org/2000/svg">
<path fill-rule="evenodd" clip-rule="evenodd" d="M300 0H0V60H300V0Z" fill="#DA4167"/>
<path d="M74.2998 33.0776C72.2897 32.4998 70.8249 31.7918 69.9053 30.9536C68.9938 30.1073 68.5381 29.0656 68.5381 27.8286C68.5381 26.4289 69.0955 25.2733 70.2104 24.3618C71.3335 23.4422 72.7902 22.9824 74.5806 22.9824C75.8013 22.9824 76.8877 23.2184 77.8398 23.6904C78.8001 24.1624 79.5407 24.8135 80.0615 25.6436C80.5905 26.4736 80.855 27.381 80.855 28.3657H78.499C78.499 27.2915 78.1572 26.4492 77.4736 25.8389C76.79 25.2204 75.8257 24.9111 74.5806 24.9111C73.425 24.9111 72.5216 25.1675 71.8706 25.6802C71.2277 26.1847 70.9062 26.8887 70.9062 27.792C70.9062 28.5163 71.2114 29.1307 71.8218 29.6353C72.4403 30.1317 73.486 30.5874 74.959 31.0024C76.4401 31.4175 77.5957 31.8773 78.4258 32.3818C79.264 32.8783 79.8825 33.4601 80.2812 34.1274C80.6882 34.7948 80.8916 35.5801 80.8916 36.4834C80.8916 37.9238 80.3301 39.0794 79.207 39.9502C78.084 40.8128 76.5825 41.2441 74.7026 41.2441C73.4819 41.2441 72.3426 41.0122 71.2847 40.5483C70.2267 40.0763 69.4089 39.4334 68.8311 38.6196C68.2614 37.8058 67.9766 36.8822 67.9766 35.8486H70.3325C70.3325 36.9229 70.7272 37.7733 71.5166 38.3999C72.3141 39.0184 73.3761 39.3276 74.7026 39.3276C75.9396 39.3276 76.8877 39.0754 77.5469 38.5708C78.2061 38.0662 78.5356 37.3786 78.5356 36.5078C78.5356 35.637 78.2305 34.9657 77.6201 34.4937C77.0098 34.0135 75.903 33.5415 74.2998 33.0776ZM103.457 41C103.327 40.7396 103.221 40.2757 103.14 39.6084C102.09 40.6989 100.837 41.2441 99.3799 41.2441C98.0778 41.2441 97.0076 40.8779 96.1694 40.1455C95.3394 39.4049 94.9243 38.4691 94.9243 37.3379C94.9243 35.9626 95.4451 34.8965 96.4868 34.1396C97.5366 33.3747 99.0096 32.9922 100.906 32.9922H103.103V31.9546C103.103 31.1652 102.867 30.5386 102.395 30.0747C101.923 29.6027 101.227 29.3667 100.308 29.3667C99.502 29.3667 98.8265 29.5701 98.2812 29.9771C97.736 30.384 97.4634 30.8763 97.4634 31.4541H95.1929C95.1929 30.7949 95.4248 30.1602 95.8887 29.5498C96.3607 28.9313 96.9954 28.443 97.793 28.085C98.5986 27.7269 99.4816 27.5479 100.442 27.5479C101.964 27.5479 103.156 27.9303 104.019 28.6953C104.881 29.4521 105.329 30.4979 105.361 31.8325V37.9116C105.361 39.1242 105.516 40.0885 105.825 40.8047V41H103.457ZM99.7095 39.2788C100.417 39.2788 101.089 39.0957 101.724 38.7295C102.358 38.3633 102.818 37.8872 103.103 37.3013V34.5913H101.333C98.5661 34.5913 97.1826 35.401 97.1826 37.0205C97.1826 37.7285 97.4186 38.2819 97.8906 38.6807C98.3626 39.0794 98.9689 39.2788 99.7095 39.2788ZM122.775 27.792L122.836 29.2568C123.805 28.1175 125.111 27.5479 126.755 27.5479C128.602 27.5479 129.86 28.2559 130.527 29.6719C130.966 29.0371 131.536 28.5244 132.236 28.1338C132.944 27.7432 133.778 27.5479 134.738 27.5479C137.635 27.5479 139.108 29.0819 139.157 32.1499V41H136.899V32.2842C136.899 31.3402 136.683 30.6362 136.252 30.1724C135.821 29.7004 135.096 29.4644 134.079 29.4644C133.241 29.4644 132.545 29.7166 131.992 30.2212C131.438 30.7176 131.117 31.389 131.027 32.2354V41H128.757V32.3452C128.757 30.4246 127.817 29.4644 125.937 29.4644C124.456 29.4644 123.443 30.0951 122.897 31.3564V41H120.639V27.792H122.775ZM162.479 39.6938C161.601 40.7274 160.311 41.2441 158.61 41.2441C157.202 41.2441 156.128 40.8372 155.387 40.0234C154.655 39.2015 154.285 37.9889 154.276 36.3857V27.792H156.535V36.3247C156.535 38.3267 157.348 39.3276 158.976 39.3276C160.701 39.3276 161.849 38.6847 162.418 37.3989V27.792H164.677V41H162.528L162.479 39.6938ZM186.253 29.8184C185.912 29.7614 185.541 29.7329 185.143 29.7329C183.661 29.7329 182.656 30.3636 182.127 31.625V41H179.869V27.792H182.066L182.103 29.3179C182.844 28.1379 183.893 27.5479 185.252 27.5479C185.692 27.5479 186.026 27.6048 186.253 27.7188V29.8184ZM207.757 41C207.627 40.7396 207.521 40.2757 207.439 39.6084C206.39 40.6989 205.136 41.2441 203.68 41.2441C202.378 41.2441 201.307 40.8779 200.469 40.1455C199.639 39.4049 199.224 38.4691 199.224 37.3379C199.224 35.9626 199.745 34.8965 200.787 34.1396C201.836 33.3747 203.309 32.9922 205.206 32.9922H207.403V31.9546C207.403 31.1652 207.167 30.5386 206.695 30.0747C206.223 29.6027 205.527 29.3667 204.607 29.3667C203.802 29.3667 203.126 29.5701 202.581 29.9771C202.036 30.384 201.763 30.8763 201.763 31.4541H199.493C199.493 30.7949 199.725 30.1602 200.188 29.5498C200.66 28.9313 201.295 28.443 202.093 28.085C202.898 27.7269 203.781 27.5479 204.742 27.5479C206.264 27.5479 207.456 27.9303 208.318 28.6953C209.181 29.4521 209.629 30.4979 209.661 31.8325V37.9116C209.661 39.1242 209.816 40.0885 210.125 40.8047V41H207.757ZM204.009 39.2788C204.717 39.2788 205.389 39.0957 206.023 38.7295C206.658 38.3633 207.118 37.8872 207.403 37.3013V34.5913H205.633C202.866 34.5913 201.482 35.401 201.482 37.0205C201.482 37.7285 201.718 38.2819 202.19 38.6807C202.662 39.0794 203.269 39.2788 204.009 39.2788ZM227.405 41H225.146V27.792H227.405V41ZM224.963 24.2886C224.963 23.9224 225.073 23.6131 225.293 23.3608C225.521 23.1086 225.854 22.9824 226.294 22.9824C226.733 22.9824 227.067 23.1086 227.295 23.3608C227.523 23.6131 227.637 23.9224 227.637 24.2886C227.637 24.6548 227.523 24.96 227.295 25.2041C227.067 25.4482 226.733 25.5703 226.294 25.5703C225.854 25.5703 225.521 25.4482 225.293 25.2041C225.073 24.96 224.963 24.6548 224.963 24.2886Z" fill="white"/>
</svg>
