<svg width="52" height="52" viewBox="0 0 52 52" fill="none" xmlns="http://www.w3.org/2000/svg">
<path fill-rule="evenodd" clip-rule="evenodd" d="M7 2H45C47.7614 2 50 4.23858 50 7V45C50 47.7614 47.7614 50 45 50H7C4.23858 50 2 47.7614 2 45V7C2 4.23858 4.23858 2 7 2ZM0 7C0 3.13401 3.13401 0 7 0H45C48.866 0 52 3.13401 52 7V45C52 48.866 48.866 52 45 52H7C3.13401 52 0 48.866 0 45V7ZM28.083 4L28.6087 8.42037C34.9809 5.74892 42.3472 9.10663 43.4436 16.016C44.6983 23.9226 37.056 30.4849 29.7008 29.1925L27.1119 40.9779L30.4894 43.1807L27.7581 47.3687L23.111 44.3379L16.8935 45.5262L15.9549 40.615L21.2901 39.5954L23.5386 29.3593L22.1568 29.7646C20.3969 30.2806 18.6447 30.3516 17.0201 30.0485L19.8653 33.0334L14.3736 38.268L10.9238 34.6488L16.0047 29.8057C12.4797 28.7726 9.73078 25.9177 9.12633 22.0512C8.12777 15.6638 13.198 10.1634 19.0695 9.38396L18.8158 5.10203L23.4494 4.55102L28.083 4ZM22.0883 15.7L22.7069 16.0079L24.0273 23.1553L20.7895 24.1048C18.1449 24.8803 15.5408 23.3388 15.1375 20.7591C14.5566 17.043 18.7112 14.0192 22.0883 15.7ZM37.4344 17.3208C38.0585 21.2537 33.8683 24.4591 30.27 23.1047L28.7813 15.046L29.3936 14.5784C32.5008 12.2059 36.8586 13.6922 37.4344 17.3208ZM37.0093 40.4721L31.5176 35.2374L34.9674 31.6182L40.4591 36.8529L37.0093 40.4721Z" fill="#DA4167"/>
</svg>
